<svg style="display:flex;justify-content:center;align-items:center;" class="injected-svg" id="svg-5a1ece64-52ed-44fa-aed1-bba5b14f7626" height="30%" width="50%" viewBox="0 0 540 508" xmlns="http://www.w3.org/2000/svg">
    <g xmlns="http://www.w3.org/2000/svg" fill="#fff" id="shape-svg">
        <title>Graphic</title>
        <g id="Слой_2"><g id="Слой_1-2">
            <path transform="translate(73, 204) scale(1,1)" d="M393.43,96.11H0V0H393.43ZM9.52,86.6H383.91V9.52H9.52Z"></path>
        </g></g>
    </g><g xmlns="http://www.w3.org/2000/svg" fill="#fff" id="icon-svg">
    <path transform="translate(374, 108) scale(0.5,0.5)" d="M 32.636 49.750 L 19.910 68.500 39.600 68.772 C 50.430 68.921, 59.430 68.904, 59.600 68.733 C 60.281 68.052, 67.698 32.449, 67.304 31.750 C 67.072 31.337, 62.040 31, 56.122 31 L 45.362 31 32.636 49.750 M 75.500 32.250 C 74.710 34.507, 68 66.108, 68 67.571 C 68 68.780, 73.003 69, 100.567 69 C 131.114 69, 133.103 68.891, 132.618 67.250 C 132.333 66.287, 130.702 59.425, 128.992 52 C 127.282 44.575, 125.442 36.813, 124.903 34.750 L 123.923 31 99.930 31 C 81.636 31, 75.833 31.297, 75.500 32.250 M 132.633 31.784 C 132.367 32.216, 134.042 40.653, 136.356 50.534 L 140.564 68.500 160.354 68.771 C 176.145 68.988, 179.994 68.786, 179.399 67.771 C 178.989 67.072, 173.239 58.513, 166.622 48.750 L 154.592 31 143.855 31 C 137.950 31, 132.900 31.353, 132.633 31.784 M 21 76.549 C 21 77.270, 87.908 160, 88.491 160 C 88.719 160, 84.827 148.188, 79.844 133.750 C 74.861 119.313, 68.431 100.525, 65.555 92 L 60.327 76.500 40.663 76.229 C 29.849 76.080, 21 76.224, 21 76.549 M 68.717 76.750 C 68.254 77.615, 99.245 167.994, 100 167.981 C 100.275 167.977, 107.438 147.841, 115.917 123.236 C 124.396 98.631, 131.532 77.938, 131.774 77.250 C 132.120 76.267, 125.472 76, 100.666 76 C 83.315 76, 68.937 76.338, 68.717 76.750 M 140 76.297 C 140 76.460, 136.811 85.798, 132.912 97.047 C 113.552 152.916, 111.145 160, 111.519 160 C 112.084 160, 179 77.269, 179 76.570 C 179 76.257, 170.225 76, 159.500 76 C 148.775 76, 140 76.134, 140 76.297" stroke="none" fill-rule="evenodd"></path>
</g>
    <path xmlns="http://www.w3.org/2000/svg" id="SvgjsPath3086755" d="M2.55-35.70L2.55 0L32.84 0L32.84-7.14L9.69-7.14L9.69-35.70ZM43.04-17.80L43.04-21.37L50.13-28.56L60.84-28.56L60.84-17.80ZM43.04 0L43.04-10.66L60.84-10.66L60.84 0L67.93 0L67.93-35.70L46.56-35.70L35.90-24.94L35.90 0ZM80.17-17.80L80.17-28.56L97.97-28.56L97.97-17.80ZM80.17 0L80.17-10.66L101.54-10.66L105.06-14.23L105.06-32.08L101.54-35.70L73.03-35.70L73.03 0ZM116.28 0L116.28-7.14L123.37-14.23L126.94-14.23L134.08-7.14L134.08 0L141.17 0L141.17-10.66L134.08-17.80L141.17-24.94L141.17-35.70L134.08-35.70L134.08-28.51L126.94-21.37L123.37-21.37L116.28-28.51L116.28-35.70L109.14-35.70L109.14-24.94L116.28-17.80L109.14-10.66L109.14 0ZM152.90 0L152.90-35.70L145.76-35.70L145.76 0ZM206.91 0L210.43-3.52L210.43-17.85L206.91-21.42L185.54-21.42L185.54-28.56L203.34-28.56L203.34-24.99L210.43-24.99L210.43-32.08L206.91-35.70L181.92-35.70L178.40-32.08L178.40-16.78L181.92-14.23L203.34-14.23L203.34-7.14L185.54-7.14L185.54-10.66L178.40-10.66L178.40-3.52L181.92 0ZM233.63 0L233.63-28.56L246.02-28.56L246.02-35.70L214.00-35.70L214.00-28.56L226.49-28.56L226.49 0ZM256.73-7.14L256.73-28.56L274.53-28.56L274.53-7.14ZM278.10 0L281.62-3.52L281.62-32.08L278.10-35.70L253.11-35.70L249.59-32.08L249.59-3.52L253.11 0ZM293.86-17.80L293.86-28.56L311.66-28.56L311.66-17.80ZM318.75 0L318.75-7.14L315.23-10.66L318.75-14.23L318.75-32.08L315.23-35.70L286.72-35.70L286.72 0L293.86 0L293.86-10.66L304.52-10.66L308.09-7.14L311.66-3.52L311.66 0ZM354.14 0L354.14-7.14L330.99-7.14L330.99-14.23L352.36-14.23L352.36-21.37L330.99-21.37L330.99-28.56L354.14-28.56L354.14-35.70L323.85-35.70L323.85 0Z" fill="#fff"  transform="matrix(1,0,0,1,91.65500000000002,269.85)"></path>
</svg>
