<svg width="479" height="309" xmlns="http://www.w3.org/2000/svg" class="injected-svg">
 <g id="shape-svg" fill="#fff">
  <title>Graphic</title>
  <g id="Слой_2">
   <g id="Слой_1-2">
    <path id="svg_1" d="m393.43,96.11l-393.43,0l0,-96.11l393.43,0l0,96.11zm-383.91,-9.51l374.39,0l0,-77.08l-374.39,0l0,77.08z" transform="translate(73, 204) scale(1,1)"/>
   </g>
  </g>
 </g>

 <g>
  <title>Layer 1</title>
  <g id="icon-svg" fill="#fff">
   <path id="svg_2" fill-rule="evenodd" d="m34.636,51.75l-12.726,18.75l19.69,0.272c10.83,0.149 19.83,0.132 20,-0.039c0.681,-0.681 8.098,-36.284 7.704,-36.983c-0.232,-0.413 -5.264,-0.75 -11.182,-0.75l-10.76,0l-12.726,18.75m42.864,-17.5c-0.79,2.257 -7.5,33.858 -7.5,35.321c0,1.209 5.003,1.429 32.567,1.429c30.547,0 32.536,-0.109 32.051,-1.75c-0.285,-0.963 -1.916,-7.825 -3.626,-15.25c-1.71,-7.425 -3.55,-15.187 -4.089,-17.25l-0.98,-3.75l-23.993,0c-18.294,0 -24.097,0.297 -24.43,1.25m57.133,-0.466c-0.266,0.432 1.409,8.869 3.723,18.75l4.208,17.966l19.79,0.271c15.791,0.217 19.64,0.015 19.045,-1c-0.41,-0.699 -6.16,-9.258 -12.777,-19.021l-12.03,-17.75l-10.737,0c-5.905,0 -10.955,0.353 -11.222,0.784m-111.633,44.765c0,0.721 66.908,83.451 67.491,83.451c0.228,0 -3.664,-11.812 -8.647,-26.25c-4.983,-14.437 -11.413,-33.225 -14.289,-41.75l-5.228,-15.5l-19.664,-0.271c-10.814,-0.149 -19.663,-0.005 -19.663,0.32m47.717,0.201c-0.463,0.865 30.528,91.244 31.283,91.231c0.275,-0.004 7.438,-20.14 15.917,-44.745c8.479,-24.605 15.615,-45.298 15.857,-45.986c0.346,-0.983 -6.302,-1.25 -31.108,-1.25c-17.351,0 -31.729,0.338 -31.949,0.75m71.283,-0.453c0,0.163 -3.189,9.501 -7.088,20.75c-19.36,55.869 -21.767,62.953 -21.393,62.953c0.565,0 67.481,-82.731 67.481,-83.43c0,-0.313 -8.775,-0.57 -19.5,-0.57c-10.725,0 -19.5,0.134 -19.5,0.297" transform="translate(374, 108) scale(0.5)"/>
  </g>
  <path fill="#fff" d="m95.205,235.15001l0,35.7l30.29,0l0,-7.14l-23.15,0l0,-28.56l-7.14,0zm40.49,17.9l0,-3.57l7.09,-7.19l10.71,0l0,10.76l-17.8,0zm0,17.8l0,-10.66l17.8,0l0,10.66l7.09,0l0,-35.7l-21.37,0l-10.66,10.76l0,24.94l7.14,0zm37.13,-17.8l0,-10.76l17.8,0l0,10.76l-17.8,0zm0,17.8l0,-10.66l21.37,0l3.52,-3.57l0,-17.85l-3.52,-3.62l-28.51,0l0,35.7l7.14,0zm36.11,0l0,-7.14l7.09,-7.09l3.57,0l7.14,7.09l0,7.14l7.09,0l0,-10.66l-7.09,-7.14l7.09,-7.14l0,-10.76l-7.09,0l0,7.19l-7.14,7.14l-3.57,0l-7.09,-7.14l0,-7.19l-7.14,0l0,10.76l7.14,7.14l-7.14,7.14l0,10.66l7.14,0zm36.62,0l0,-35.7l-7.14,0l0,35.7l7.14,0zm54.01,0l3.52,-3.52l0,-14.33l-3.52,-3.57l-21.37,0l0,-7.14l17.8,0l0,3.57l7.09,0l0,-7.09l-3.52,-3.62l-24.99,0l-3.52,3.62l0,15.3l3.52,2.55l21.42,0l0,7.09l-17.8,0l0,-3.52l-7.14,0l0,7.14l3.52,3.52l24.99,0zm26.72,0l0,-28.56l12.39,0l0,-7.14l-32.02,0l0,7.14l12.49,0l0,28.56l7.14,0zm23.1,-7.14l0,-21.42l17.8,0l0,21.42l-17.8,0zm21.37,7.14l3.52,-3.52l0,-28.56l-3.52,-3.62l-24.99,0l-3.52,3.62l0,28.56l3.52,3.52l24.99,0zm15.76,-17.8l0,-10.76l17.8,0l0,10.76l-17.8,0zm24.89,17.8l0,-7.14l-3.52,-3.52l3.52,-3.57l0,-17.85l-3.52,-3.62l-28.51,0l0,35.7l7.14,0l0,-10.66l10.66,0l3.57,3.52l3.57,3.62l0,3.52l7.09,0zm35.39,0l0,-7.14l-23.15,0l0,-7.09l21.37,0l0,-7.14l-21.37,0l0,-7.19l23.15,0l0,-7.14l-30.29,0l0,35.7l30.29,0z" id="SvgjsPath3086755"/>
 </g>
 <g>
  <title>background</title>
  <rect fill="none" id="canvas_background" height="311" width="481" y="-1" x="-1"/>
 </g>
</svg>